<svg xmlns="http://www.w3.org/2000/svg" version="1.0" viewBox="0 0 1024 1024"><path d="M410.4 187c-6.5 2.6-7.1 11.3-1 16.2 1.9 1.6 5.5 1.8 37.6 1.8 19.5 0 37.2.3 39.3.7 7.4 1.2 7.3-.3 3.3 49.5-2 24.4-3.8 46.8-4.1 49.8-.2 3-1.2 18.3-2.1 34-2.5 43.4-1.3 78.6 3.5 99 4.2 18 15.5 38.6 29.9 54.1 6.9 7.4 22.7 19.9 31.1 24.4 2.8 1.6 5.1 3.2 5.1 3.6 0 .5-3.7 5.2-8.3 10.6-11.2 13.2-21.6 26.9-25.8 34.2-1.9 3.3-4.7 8.1-6.2 10.7l-2.9 4.7-4.5-8.1c-9-15.8-24.7-34.5-40.1-47.5-10-8.5-19-14.7-21.2-14.7-3.1 0-7.9 3.9-8.8 7.2-1.4 5.4.2 8 10.1 15.4 27.2 20.5 51.9 55.2 55.6 78.4.7 4.2 1.1 38.1 1.1 94.8 0 93.9 0 93.6-4.7 96-1 .5-15.7 1.2-32.8 1.6-58.2 1.2-102 2.8-103.8 3.8-2.5 1.3-4.6 6.7-4 10 .3 1.4 1.6 3.7 3 5 2.8 2.6-3 2.6 64.3.8 50.3-1.3 118.1-1.3 171 .2 64 1.7 61.5 1.7 64-.8 1.2-1.2 2.4-3.9 2.7-6.1.4-3.2.1-4.5-1.9-6.8l-2.5-2.8-17.9-.9c-9.8-.5-39.7-1.4-66.4-2.1l-48.4-1.2-2.3-3.4-2.3-3.4V701c0-106.6-.7-96.7 8-113.9 8.7-17.4 18.6-31.2 36.1-50.6 19.3-21.4 19.4-22.7 1.6-31.7-14.6-7.2-22.9-13.1-33.3-23.3-28.7-28.4-35.9-60.4-30.9-138 3.5-53.7 4.6-71.1 6.1-89.5 2.2-28.5 3.2-40.3 3.8-42 .2-.8.7-2.7 1-4.3l.6-2.7h72.2l2.9-2.9c3-3.1 3.6-6.1 1.9-10.6-2.1-5.6-.4-5.5-92.7-5.4-46.6 0-85.8.4-86.9.9z"/><path d="M269.5 260.7c-3.3 3.4-2.9 2.5-12.1 29.8-12.9 38.2-19 64.7-21.5 93.5-2.8 32.3 2 56 15.4 76.8 17.1 26.5 42.3 43.8 74.2 50.9 7 1.5 11.7 3.2 13 4.4 2 1.9 2 3.5 2.3 109.7.2 75.6-.1 108.5-.9 110.3-1.3 3.4-4.7 4.9-10.9 4.9s-46.7 2.7-58 3.9c-7.3.8-8.7 1.3-10.7 3.6-2.6 3-3 8-.8 11.1 3.1 4.5 5.4 4.6 32.6 2.5 40-3.2 60.8-3.6 89.4-1.7 13.8.9 28.8 2.1 33.5 2.7 4.7.6 12.3 1.3 17.1 1.6l8.5.6 2.7-3.2c4.7-5.6 3.4-13.1-2.5-15-4.6-1.5-57.2-6-70-6.1-12 0-10.8 12.6-10.8-110.3 0-66.6.4-107.5 1-109.7 1.6-5.9 2.9-6.9 11.6-8.5 16-3 31.8-9.9 44.4-19.4 9.8-7.4 22.9-21.6 28.8-31 21.6-35.2 23-72.2 5.2-141.7-3.2-12.7-6.5-24.8-7.4-27-.8-2.1-3.3-9.8-5.5-17.1-3.4-10.8-4.7-13.6-7.2-15.7l-3.1-2.6H272.3l-2.8 2.7zm148.7 16.7c2.8 2.7 19.8 57.9 19.8 64.1 0 1.3-10.1 1.5-88.5 1.5-48.7 0-88.5-.4-88.5-.8s2-8.2 4.4-17.2c5.2-19.4 13-43.4 15.1-46.7l1.5-2.3h67.5c55.9 0 67.6.2 68.7 1.4zm22.9 85c1 2.6 3.9 26.5 3.9 32.9v4.7l-18.2.1c-10.1 0-23.7.1-30.3.2-6.6.1-41.6.1-77.7-.1L253 400v-5.8c0-6.2 2.8-32.1 3.6-33.4.3-.5 41.7-.7 92.1-.6 91.2.2 91.5.2 92.4 2.2zm-169 56.6h6.6l.7 5.2c1.5 10.8 8.1 24 17 33.6 14.3 15.5 37.9 23.9 59.9 21.1 30.1-3.7 50.2-22.5 59.9-55.9l1.3-4.5 6-.3c3.3-.2 9.3-.1 13.3.3l7.3.7-.7 3.6c-2.7 14.7-12.6 32.4-25.3 45.2-12.3 12.3-22.8 18.9-38.1 23.8-28.1 9-61.4 4.2-87-12.7-7.7-5-20.5-17.5-25.3-24.5-5.3-7.9-10.4-19-12.3-27.2-2.1-9-1.6-9.8 4.9-9 2.8.3 8.2.6 11.8.6zm119.6-.1 6.1.1-1.8 6c-5 16.5-17.4 28.7-34.1 33.4-9.1 2.5-15.8 2.9-23.9 1.2-20.5-4.3-34.7-16.9-39.4-34.9-.8-2.8-1.2-5.5-1-5.8.3-.6 43.2-.5 94.1 0zm187.5-159.3c-3.1 2.2-4.7 5.7-11.3 24.6-17.9 51.4-25.1 89.4-23.6 123.3 1.1 23.1 5.7 37.7 17.3 55.2 16.3 24.6 42 42.4 70.4 48.8 11.4 2.6 12.2 2.9 14.4 5.9 2.1 2.7 2.1 3.4 2.4 111.5.2 102.8.1 108.8-1.5 110.3-1.3 1.1-6.5 1.8-19.3 2.7-9.6.7-26.9 2.1-38.4 3-20.6 1.7-21 1.8-23.3 4.5-2.9 3.4-3 8.4-.2 12 3 3.9 5.8 4.6 13.1 3.6 3.4-.5 17.6-1.9 31.3-3.1 30.8-2.6 66.1-2.8 95.5-.5 39.8 3.2 35.8 3.2 38.5.6 5.4-5.1 5.3-12.5-.2-15.3-1.8-.9-11-2-25.8-3.1-35.2-2.6-46.2-3.5-47.9-4.2-.9-.3-2-2.2-2.6-4.2-1.2-4.4-1.3-207.2-.1-214.5.4-2.6 1.3-5.3 1.8-5.8.6-.6 4.9-1.9 9.5-2.9 36.2-8.1 61.6-26.7 79.6-58.3 5.2-9.1 10.4-23.8 12.1-34.2 5.2-31.5-1.6-82.1-17.2-128-8.2-24-9.8-27.7-13-30.8l-2.9-2.7h-78.2c-69.2 0-78.4.2-80.4 1.6zm152.7 21.8c6.6 17.8 18 59 16.6 60.4-1 1-177.5 1.6-178.5.6-1.9-1.9 15.4-60.2 19.3-65.2.7-.9 16.1-1.2 70.8-1.2h69.8l2 5.4zm20.5 80.8c.9 4 2.6 25.2 2.6 31.5v6l-29.7.5c-16.4.3-59.9.3-96.7 0l-66.9-.5.6-12.1c.6-10.8 1.9-20.9 3.3-25.9.5-1.6 5.8-1.7 93.4-1.7h93l.4 2.2zM580.7 419h7.1l1.1 4.8c2.7 12.9 9.1 24.2 19.3 34.5 17 17 42.5 24.5 64.3 18.9 13.8-3.4 22.8-8.5 32.6-18.2 6.9-6.9 9.4-10.2 13.1-17.6 2.5-4.9 5.1-12 5.8-15.7 1.2-5.6 1.7-6.7 3.4-6.8 4-.1 25.1.3 25.3.5.2.1-1 4.5-2.7 9.7-7.9 25.2-30.3 49.3-55 59.2-13.7 5.4-22.4 7.1-38 7.1-12.7 0-15.7-.3-24.4-2.7-19.7-5.4-37.2-16.3-49.3-30.7-9.2-11-17.8-28.3-19.8-40l-.7-4.3 5.3.6c3 .4 8.6.7 12.6.7zm125.9.2c1.1 1.2-3.4 12.8-7.3 18.6-5.9 8.7-13.2 14.6-22.5 18.2-27.8 10.8-58.4-2.4-67.3-29-1.4-4.1-2.5-7.8-2.5-8.2 0-1 98.6-.5 99.6.4z"/></svg>